<svg xmlns="http://www.w3.org/2000/svg" width="140.852" height="20.406" viewBox="0 0 140.852 20.406">
  <g id="_5-star-icon" data-name="5-star-icon" transform="translate(-457.706 -2636.783)">
    <path id="Path_68" data-name="Path 68" d="M716.879,2882.665l3.315,6.717,7.413,1.077-5.364,5.229,1.266,7.383-6.63-3.486-6.63,3.486,1.266-7.383-5.364-5.229,7.413-1.077Z" transform="translate(-248.445 -245.882)" fill="#ffed4a"/>
    <path id="Path_69" data-name="Path 69" d="M746.728,2882.665l3.315,6.717,7.413,1.077-5.364,5.229,1.266,7.383-6.63-3.486-6.63,3.486,1.266-7.383L736,2890.459l7.413-1.077Z" transform="translate(-248.445 -245.882)" fill="#ffed4a"/>
    <path id="Path_70" data-name="Path 70" d="M776.577,2882.665l3.315,6.717,7.413,1.077-5.364,5.229,1.266,7.383-6.63-3.486-6.63,3.486,1.266-7.383-5.364-5.229,7.413-1.077Z" transform="translate(-248.445 -245.882)" fill="#ffed4a"/>
    <path id="Path_71" data-name="Path 71" d="M806.426,2882.665l3.315,6.717,7.413,1.077-5.364,5.229,1.266,7.383-6.63-3.486-6.63,3.486,1.266-7.383-5.364-5.229,7.413-1.077Z" transform="translate(-248.445 -245.882)" fill="#ffed4a"/>
    <path id="Path_72" data-name="Path 72" d="M836.275,2882.665l3.315,6.717,7.413,1.077-5.364,5.229,1.266,7.383-6.63-3.486-6.63,3.486,1.266-7.383-5.364-5.229,7.413-1.077Z" transform="translate(-248.445 -245.882)" fill="#ffed4a"/>
  </g>
</svg>
