<svg xmlns="http://www.w3.org/2000/svg" width="598.274" height="216.93" viewBox="0 0 598.274 216.93">
  <g id="ihr-new_shap" data-name="ihr-new shap" transform="translate(1335.358 -2125.278)">
    <path id="Path_12731" data-name="Path 12731" d="M-1270.752,2302.364s19.52,9.209,52.886,17.011a403.945,403.945,0,0,0,202.763-5.221c86.13-35.493,142.919-61.048,218.165-173.207-.474-.946-76.665,26.975-109.319,44.485-32.654,12.778-67.674,29.341-116.891,33.127s-127.775,20.823-166.108,43.065C-1229.01,2280.081-1270.752,2302.364-1270.752,2302.364Z" fill="#f7bfdd"/>
    <path id="Path_12729" data-name="Path 12729" d="M1421.042,2075.728c79.739-48.259,161.95-97.462,253.862-112.935,30.363-5.112,61.338-6.434,91.419-13,64.433-14.067,121.4-51.349,184.374-70.949,28.97-7.569,62.274-13.7,62.274-13.7" transform="translate(-2752.966 263.047)" fill="none" stroke="#fff" stroke-linecap="round" stroke-linejoin="round" stroke-width="5"/>
  </g>
</svg>
