<svg xmlns="http://www.w3.org/2000/svg" width="98" height="98" viewBox="0 0 98 98">
  <g id="Group_12656" data-name="Group 12656" transform="translate(6448 -613)">
    <rect id="Rectangle_968" data-name="Rectangle 968" width="98" height="98" transform="translate(-6448 613)" fill="#7d7d7d" opacity="0"/>
    <g id="rehabilitation" transform="translate(-6443 621)">
      <path id="Path_12729" data-name="Path 12729" d="M83.428,51.916a5.393,5.393,0,0,0,0-10.785H64.845a6.124,6.124,0,0,0-3.27-2.446L54.623,36.1a22.784,22.784,0,0,1-1.989-2.047c1.65-4.917.569-9.9-.489-14.37a10,10,0,0,0,3.6-5.943,10.158,10.158,0,0,0-.145-4.17,4.552,4.552,0,0,0,2.813-2.516c1.059-2.406,1.14-4.22.239-5.391C57.91.7,56.672.345,54.971.611h0A21.639,21.639,0,0,1,48.507.349,16.227,16.227,0,0,0,43.695.1a9.03,9.03,0,0,0-6.778,4.777,15.636,15.636,0,0,0-1.256,5.408,20.119,20.119,0,0,0,.173,4.051,9.756,9.756,0,0,0,3.584,5.785c-3.123,2.86-4.828,7.277-4.828,9.685V41.131H5.392a5.393,5.393,0,0,0,0,10.785h1v8.273a1.3,1.3,0,0,0,2.6,0V51.916h4.4V72.859h-4.4V66.194a1.3,1.3,0,0,0-2.6,0v6.728a4.5,4.5,0,0,0-3.747,4.434v2.287a2.213,2.213,0,0,0,2.211,2.211H17.529a2.213,2.213,0,0,0,2.211-2.211V77.357a4.5,4.5,0,0,0-3.747-4.434V51.916H36.041c-.239.548-.477,1.1-.711,1.636C34.17,56.23,32.97,59,31.609,61.61a37.444,37.444,0,0,1-5.141,7.724A3.454,3.454,0,0,0,25,71.791a3.26,3.26,0,0,0,1.205,2.027l7.255,7.624.138.147a2.481,2.481,0,0,0,1.775,1.021c.058,0,.117,0,.178-.009a2.534,2.534,0,0,0,1.791-1.382c1.733-2.768-1.065-8.059-1.185-8.283-.079-.147-.128-.25-.159-.321.082-.1,7.131-8.477,8.018-9.741,3.049,5.493,4.2,16.113,4.21,16.3a2.733,2.733,0,0,0,.751,2.108,3.274,3.274,0,0,0,2.265.5H62.137a2.212,2.212,0,0,0,1.917-.718,2.535,2.535,0,0,0,.232-2.254c-.805-3.155-6.571-4.779-6.817-4.847-.162-.044-.27-.08-.343-.106-.018-.131-.034-.316-.049-.475-.011-.118-.022-.245-.036-.382-.63-6.366-1.83-15.131-5.041-21.089h9.392a1.3,1.3,0,1,0,0-2.6h-56a2.79,2.79,0,0,1,0-5.581H49.378a7.562,7.562,0,0,0,1.844.553c.33.069,9.769,2.4,9.807,2.4a3.752,3.752,0,0,0,.583.046,3.808,3.808,0,0,0,3.676-2.791c.018-.068.033-.138.047-.209H83.428a2.79,2.79,0,0,1,0,5.581H67.4a1.3,1.3,0,0,0,0,2.6h5.426v8.273a1.3,1.3,0,0,0,2.6,0V51.916H79.82V72.859H75.43V66.194a1.3,1.3,0,0,0-2.6,0v6.728a4.5,4.5,0,0,0-3.752,4.435v2.287a2.213,2.213,0,0,0,2.211,2.211H83.964a2.213,2.213,0,0,0,2.211-2.211V77.357a4.5,4.5,0,0,0-3.752-4.435V51.916h1.006ZM17.137,77.357v1.9H5.248v-1.9a1.9,1.9,0,0,1,1.89-1.9h8.1A1.9,1.9,0,0,1,17.137,77.357Zm17.22-6.818c-.941,1.067-1.443,1.844-.488,3.626s1.676,4.293,1.391,5.388L28.1,72.025c-.077-.082-.184-.194-.285-.3l.168-.183c.127-.138.27-.292.43-.47A37.091,37.091,0,0,0,32.9,64.688l3.9,2.963c-.67.817-2.366,2.8-2.44,2.888Zm5.092-6.132c-.4.459-.746.856-1.025,1.212l-4.28-3.25c1.309-2.558,2.461-5.211,3.575-7.782.222-.513.449-1.035.676-1.556a40.078,40.078,0,0,1,4.34,7.033A28.537,28.537,0,0,1,39.449,64.407ZM61.642,79.183H51.248c-.1,0-.257,0-.406,0-.005-.067-.011-.136-.016-.2-.015-.2-.033-.434-.058-.7a49.857,49.857,0,0,0-1.38-7.635l4.692-.775c.145,1.182.267,2.321.373,3.391.013.129.024.248.033.358.128,1.421.346,2.323,2.292,2.857s4.27,1.747,4.863,2.707ZM53.731,67.291l-5.053.834a62.035,62.035,0,0,0-3.272-8.469,1.3,1.3,0,0,0-.1-.211,44.9,44.9,0,0,0-4.489-7.529h8.167C51.542,55.834,52.917,61.788,53.731,67.291ZM38.287,13.113c-.362-3.265-.207-9.424,5.841-10.445a14.45,14.45,0,0,1,4.005.257,23.717,23.717,0,0,0,7.24.257c.847-.132,1.17.011,1.217.071.108.141.238.949-.558,2.757-.9,2.048-5.269,1.484-9.493.938l-.755-.1c-2.294-.294-3.6,1.972-4.746,3.971a12.359,12.359,0,0,1-1.51,2.269C39.262,13.359,38.714,13.258,38.287,13.113Zm.854,2.744a3.161,3.161,0,0,0,2.239-.941,13.919,13.919,0,0,0,1.912-2.8c.593-1.032,1.581-2.761,2.16-2.686l.752.1a39.751,39.751,0,0,0,6.827.511,7.541,7.541,0,0,1,.151,3.257,7.951,7.951,0,0,1-5.878,6,6.914,6.914,0,0,1-2.875.155,8.055,8.055,0,0,1-3.266-1.276,6.457,6.457,0,0,1-2.022-2.321Zm-1.95,25.274V29.808c0-2.077,1.81-6.191,4.69-8.355a11.907,11.907,0,0,0,2.1.564,8.689,8.689,0,0,0,1.486.126,9.965,9.965,0,0,0,2.487-.326,10.963,10.963,0,0,0,1.858-.67c.811,3.5,1.481,7.061.771,10.527l-4.781-5.6a1.3,1.3,0,0,0-1.979,1.689l5.533,6.483L46.146,37.3l-3.712-4.033a1.3,1.3,0,0,0-1.915,1.762l4.608,5.006.009.009.005.006.012.011.035.035,1.085,1.031ZM62.77,43.284a1.186,1.186,0,0,1-1.291.839L53,42.02c-.5-.124-.914-.211-1.249-.281a3.492,3.492,0,0,1-2.4-1.27l-.018-.018-1.363-1.295,3.1-2.945c1.836,2.029,2.328,2.212,2.555,2.3l7.046,2.616c1.5.557,2.3,1.385,2.1,2.16Zm20.8,34.073v1.9H71.678v-1.9a1.9,1.9,0,0,1,1.9-1.9h8.1A1.9,1.9,0,0,1,83.573,77.357Z" transform="translate(0 0)" fill="#fff"/>
    </g>
  </g>
</svg>
