<svg xmlns="http://www.w3.org/2000/svg" width="98" height="98" viewBox="0 0 98 98">
  <g id="manuelle-therapie-icon" transform="translate(6006 -609)">
    <rect id="Rectangle_971" data-name="Rectangle 971" width="98" height="98" transform="translate(-6006 609)" fill="#7d7d7d" opacity="0"/>
    <path id="ubung" d="M87.069,40.027a1.435,1.435,0,0,0-1.2-.712l-32.391-.852a6.788,6.788,0,0,0,1.309-1.023l2.871-2.872a6.743,6.743,0,0,0-9.537-9.535L45.25,27.905a6.7,6.7,0,0,0-1.87,3.614l-8.393-8.75a1.432,1.432,0,0,0-2.067,1.983l1.819,1.9-2.5,1.8L20.017,13.37a2.872,2.872,0,0,0,1.464-.546l7.474,7.793a1.432,1.432,0,1,0,2.067-1.983L22.658,9.914l-.289-8.045A1.886,1.886,0,0,0,18.949.79L1.973,24.539a7.988,7.988,0,0,0,.207,9.525L13.1,49.47a6.2,6.2,0,0,0,1.714,1.565,10.074,10.074,0,0,0-.056,1.144l.455,42.047A3.6,3.6,0,0,0,18.8,97.777h7.833a2.6,2.6,0,0,0,1.24-4.889c-.039-.021-.078-.04-.119-.057l-4.494-1.922a.626.626,0,0,1-.373-.653L24.436,78.09a1.433,1.433,0,1,0-2.842-.361l-.229,1.805H17.922l-.3-27.386a7.257,7.257,0,0,1,.139-1.5c.009-.035.017-.071.024-.107a7.1,7.1,0,0,1,2.06-3.664,1.432,1.432,0,0,0-1.978-2.072,10.045,10.045,0,0,0-2.253,3.22,1.9,1.9,0,0,1-.178-.211L4.5,32.378c-.014-.02-.029-.04-.045-.06A5.11,5.11,0,0,1,4.3,26.205l7.4-10.353,1.634,1.294L8.857,25.552c-.013.025-.026.05-.038.075A3.942,3.942,0,0,0,9.826,30.24L25.871,44.046,22.3,72.145a1.433,1.433,0,0,0,1.241,1.6,1.488,1.488,0,0,0,.182.011,1.432,1.432,0,0,0,1.419-1.252l2.272-17.893h7.716c4.392,0,8.308-.366,11.751-4.856l1.048-1.184,32.433-1.981.032,0a7.946,7.946,0,0,0,5.41-2.816,1.512,1.512,0,0,0,.163-.242l1.126-2.108a1.431,1.431,0,0,0-.025-1.395ZM21,82.4l-.952,7.494a3.5,3.5,0,0,0,2.089,3.648l3.2,1.371H18.8a.727.727,0,0,1-.724-.717l-.128-11.8ZM47.276,29.931l2.871-2.872a3.879,3.879,0,0,1,5.486,5.484l-2.871,2.872a3.879,3.879,0,1,1-5.486-5.484Zm-33.9-16.412,6.236-8.724.205,5.7a.029.029,0,0,1-.026.019h-.975a3.046,3.046,0,0,0-.424.031c-.023,0-.045.005-.068.008l-.036,0-.016,0-.078.016A3.213,3.213,0,0,0,16.5,11.5l-.031.03-.023.023c-.016.017-.03.035-.045.052l-.018.02a3.2,3.2,0,0,0-.49.739l-1.181,2.214ZM11.409,26.854l6.29-11.8L34.513,35.8a6.722,6.722,0,0,1-6.6,6.227L11.694,28.069a1.065,1.065,0,0,1-.286-1.215Zm35.755,18.9a1.433,1.433,0,0,0-.985.48L44.7,47.9c-.023.027-.045.054-.066.081-1.987,2.607-3.83,3.77-9.505,3.77H27.78l.875-6.891a9.591,9.591,0,0,0,8.74-9.541,1.434,1.434,0,0,0-.32-.9l-3.028-3.736,2.695-1.941,8.745,9.117a10.413,10.413,0,0,0,7.737,3.469l3.307.087.075,3.763Zm33.009-2.016L59.467,45,59.4,41.485l24.053.633a5.069,5.069,0,0,1-3.276,1.616Zm0,0" transform="translate(-6000.5 609.001)" fill="#fff"/>
  </g>
</svg>
