<svg xmlns="http://www.w3.org/2000/svg" width="98" height="98" viewBox="0 0 98 98">
  <g id="medizinisch-icon" transform="translate(6184 -616)">
    <rect id="Rectangle_970" data-name="Rectangle 970" width="98" height="98" transform="translate(-6184 616)" fill="#7d7d7d" opacity="0"/>
    <g id="physiotherapie" transform="translate(-6177 624)">
      <path id="Path_12730" data-name="Path 12730" d="M81.909,68.886H76.931a8.115,8.115,0,0,0,2.62-4.509,10.977,10.977,0,0,0,.02-3.932,14.178,14.178,0,0,1,.1-5.149h0c.352-1.573.1-2.753-.762-3.508-1.039-.914-2.736-.953-5.044-.114a5.782,5.782,0,0,0-1.943,1.179A9.236,9.236,0,0,0,60.8,56.55a19.077,19.077,0,0,0-5.808-2.531,1.229,1.229,0,1,0-.621,2.379,16.31,16.31,0,0,1,5.3,2.358c-.038.1-.075.207-.11.311a8.889,8.889,0,0,0-.426,3.688,10.17,10.17,0,0,0,2.833,6.131H49.934V65.062H53.2a1.229,1.229,0,0,0,0-2.459H39.051V58.009a4.56,4.56,0,0,0,.464-.238,18.608,18.608,0,0,1,9.382-2.1h.02a1.229,1.229,0,0,0,.02-2.459,25.371,25.371,0,0,0-4.116.265V46.943a10.37,10.37,0,0,0,2.917-3.211,9.224,9.224,0,0,0,1.307-5.185c.014-.325.029-.68.049-1.075,0-.011,0-.022,0-.033s0-.021,0-.032V34.391a6.492,6.492,0,0,0-6.485-6.485h-.43a9.828,9.828,0,0,0,3.039-6.447V18.936a10.728,10.728,0,0,0-2.935-7.787,9.353,9.353,0,0,0-6.518-2.736H35.73a9.36,9.36,0,0,0-6.52,2.735,10.723,10.723,0,0,0-2.938,7.788v2.523a9.826,9.826,0,0,0,3.041,6.447h-.432a6.345,6.345,0,0,0-5.661,3.415L16.062,42.946c-.81-1.454-2.817-4.581-5.19-4.762a2.378,2.378,0,0,0-2.041.582A2.241,2.241,0,0,0,8.5,40.8l1.73,9.863a3.049,3.049,0,0,0,.852,2.034,2.627,2.627,0,0,0,2.107.331c.165-.018.352-.038.563-.057a13.922,13.922,0,0,1,6.954,1.118,20.734,20.734,0,0,1,2.757,1.534v6.589H13.459c-1.446,0-1.485-.082-1.672-.476-.241-.51-2.438-4.988-5.432-5.218a2.375,2.375,0,0,0-2.045.583,2.22,2.22,0,0,0-.323,2.05l1.7,9.729H2.015A2.017,2.017,0,0,0,0,70.9v9.637a2.019,2.019,0,0,0,2.015,2.019H5.079v2.284a4.748,4.748,0,0,0,4.742,4.742H74.1a4.748,4.748,0,0,0,4.742-4.742V82.557h3.064a2.022,2.022,0,0,0,2.019-2.019V70.9a2.019,2.019,0,0,0-2.019-2.015Zm-8.627-7.309a7.216,7.216,0,0,1-.557-5.674A3.349,3.349,0,0,1,74.7,53.985a6.272,6.272,0,0,1,2.048-.454.935.935,0,0,1,.533.1c.042.037.164.337-.013,1.124h0a16.668,16.668,0,0,0-.143,5.97,9.046,9.046,0,0,1,.03,3.081c-.7,2.934-2.4,4.347-6.4,4.852l.032-.027C74.188,65.7,74.02,63.174,73.282,61.576Zm-11.706.917a6.413,6.413,0,0,1,.316-2.655,7.4,7.4,0,0,1,5.939-5.1,7.024,7.024,0,0,1,2.624.217,9.6,9.6,0,0,0,.595,7.644c1.2,2.606-3.376,5.377-4.829,6.175a7.378,7.378,0,0,1-4.644-6.287Zm-14.1,2.569v3.824h-10.7a1.916,1.916,0,0,1,.183-3.824ZM42.364,53.983a16.719,16.719,0,0,0-4.089,1.665l-.066.038c-.137-.162-.314-.389-.478-.6-.2-.256-.449-.576-.748-.942a26.168,26.168,0,0,0-2.489-2.565l6.772-2.732c.353-.143.722-.3,1.1-.476v5.611ZM31.686,50.062a1.525,1.525,0,0,1-1.131-2.833l.033-.014L36.8,44.524l1.46,2.886Zm4.063-39.19a7.109,7.109,0,0,1,6.918,6.58c-2.686-.512-8.165-1.609-8.8-1.774h0a3.96,3.96,0,0,0-.993-.132A4.563,4.563,0,0,0,30.188,16.6a6.826,6.826,0,0,1-1.353.792A7.106,7.106,0,0,1,35.749,10.871ZM28.731,21.459V19.993a7.79,7.79,0,0,0,2.861-1.373c.806-.561,1.066-.716,1.656-.563h0c.441.114,6.817,1.419,9.515,1.915v1.486c0,2.113-2.017,5.21-4.8,6.533a1.245,1.245,0,0,0-.114.051c-.152.069-.306.135-.463.193a4.674,4.674,0,0,1-1.64.338,4.734,4.734,0,0,1-1.639-.336c-.15-.056-.3-.119-.446-.186A1.249,1.249,0,0,0,33.543,28c-2.583-1.24-4.812-4.205-4.812-6.537Zm9.855,8.948v.369a3.065,3.065,0,0,1-2.836,3.246,3.067,3.067,0,0,1-2.841-3.246v-.369q.174.073.35.139a6.584,6.584,0,0,0,4.982,0q.173-.064.345-.137Zm-13.272,2.2a3.882,3.882,0,0,1,3.568-2.246h1.568v.411a5.52,5.52,0,0,0,5.3,5.7,5.517,5.517,0,0,0,5.3-5.7v-.411h1.568a4.031,4.031,0,0,1,4.026,4.026v2.985c-.02.391-.035.745-.049,1.068a6.816,6.816,0,0,1-.981,4.06,9.53,9.53,0,0,1-5.062,3.981l-1.5-2.962A5.5,5.5,0,0,0,40.6,42.3a1.217,1.217,0,0,0,.161-.21l1.482-2.44a1.229,1.229,0,0,0-2.1-1.277L38.733,40.7a3.393,3.393,0,0,1-1.391.909l-7.717,3.344a3.942,3.942,0,0,0-1.707,1.332,15.8,15.8,0,0,0-3.5-1.38l2.5-4.07a1.229,1.229,0,1,0-2.094-1.288L21.86,44.364c-1.188-.19-2.38-.311-3.535-.4ZM17.243,50.6a16.709,16.709,0,0,0-3.714-.073c-.224.02-.739.076-.808.083-.025-.132-1.737-9.9-1.737-9.9.971.413,2.434,2.326,3.237,4.011a2.356,2.356,0,0,0,1.591,1.531c.765.1,1.322.082,1.575.1.325.023.655.049.987.077Zm8.681,6.983A9.641,9.641,0,0,1,28.789,61.8a9.182,9.182,0,0,1-2.865.377ZM15.609,64.676h7.743c4.772,0,6.415-.282,7.322-1.256a2.207,2.207,0,0,0,.577-1.712c-.155-2.269-3.286-6.968-9.512-9.847a14.556,14.556,0,0,0-2.085-.762l1.194-4.4a16.423,16.423,0,0,1,6.289,1.974,3.983,3.983,0,0,0,4.734,3.884A25.856,25.856,0,0,1,35.08,55.7c.279.343.509.637.712.9a10.251,10.251,0,0,0,.8.948V62.62a4.373,4.373,0,0,0-3.572,6.266H15.609ZM9.565,62.793c.828,1.746,2.259,1.873,3.585,1.882v4.21H8.187L6.466,59.049c.978.384,2.355,2.166,3.1,3.744ZM81.47,80.1H44.9a1.229,1.229,0,1,0,0,2.459H76.387v2.284A2.286,2.286,0,0,1,74.1,87.124H9.821a2.286,2.286,0,0,1-2.283-2.284V82.557H39.49a1.229,1.229,0,1,0,0-2.459H2.459V71.345H81.47Z" transform="translate(0 -8.413)" fill="#fff"/>
    </g>
  </g>
</svg>
