<svg xmlns="http://www.w3.org/2000/svg" width="98" height="98" viewBox="0 0 98 98">
  <g id="nach-bath-icon" transform="translate(6335 -613)">
    <rect id="Rectangle_969" data-name="Rectangle 969" width="98" height="98" transform="translate(-6335 613)" fill="#7d7d7d" opacity="0"/>
    <path id="gesundheitswesen-und-medizin" d="M96.02,63.311H94.876V59.642c0-.011,0-.022,0-.032s0-.044,0-.065-.005-.062-.01-.094-.006-.043-.01-.065-.013-.064-.021-.1-.01-.04-.016-.06-.023-.069-.036-.1a.387.387,0,0,0-.013-.038L83.121,31.345a7.791,7.791,0,0,1-.6-3.1A22.346,22.346,0,0,0,74.307,10.7c-.671-.642-1.35-1.247-2.077-1.846a1.428,1.428,0,0,0-1.816,2.2c.39.322.765.645,1.132.975L65.388,22.6a26.2,26.2,0,0,0-24.715-8.473.792.792,0,0,0-.082.016,25.993,25.993,0,0,0-5.059,1.544L31.885,16.8l-1.754-4.371L36.5,9.05A1.426,1.426,0,0,0,36.442,6.5C39.371,3.584,44.249,2.412,51,3.009A34.824,34.824,0,0,1,65.422,7.6,1.428,1.428,0,1,0,66.85,5.128,37.65,37.65,0,0,0,51.25.163C42.586-.6,36.511,1.342,33.155,5.945A6.006,6.006,0,0,0,29.246,3.96L24.3,3.485a6.011,6.011,0,0,0-6.559,5.41l-.1,1.06a6.034,6.034,0,0,0,1.52,4.592L1.231,23.071a2.159,2.159,0,0,0,.149,3.963l2.69,1.039a4.409,4.409,0,0,0,2.989.065L27.071,21.4a26.35,26.35,0,0,0-5.692,8.577,1.4,1.4,0,0,0-.1.245A26.315,26.315,0,0,0,19.751,44.01a1.337,1.337,0,0,0,.03.181,26.337,26.337,0,0,0,14,19.119H31.048a1.428,1.428,0,1,0,0,2.856H96.02a1.428,1.428,0,1,0,0-2.856ZM77.949,20.022a19.451,19.451,0,0,1,1.71,8.2,10.644,10.644,0,0,0,.827,4.23L91.361,58.36,88.1,58.6l-1.161.083L69.56,29.042a26.274,26.274,0,0,0-2.28-4.019l6.433-11.028a19.626,19.626,0,0,1,4.237,6.028ZM64.671,53.534a38.9,38.9,0,0,1-13.376,2.354A39.131,39.131,0,0,1,22.524,43.237a23.461,23.461,0,0,1,.671-9.8,44.61,44.61,0,0,0,6.771,6,1.428,1.428,0,0,0,1.668-2.319,41.787,41.787,0,0,1-7.325-6.733,23.537,23.537,0,0,1,7.382-9.236A33.526,33.526,0,0,0,58.451,34.5a33.46,33.46,0,0,0,9.6-1.4,23.465,23.465,0,0,1,.825,9.711A41.415,41.415,0,0,1,55.837,44.91a41.063,41.063,0,0,1-18.817-4.5,1.428,1.428,0,1,0-1.3,2.545,43.882,43.882,0,0,0,20.114,4.813A44.305,44.305,0,0,0,68.249,46a23.344,23.344,0,0,1-3.578,7.532Zm-.229-27.572,2.578,4.4.029.066a30.6,30.6,0,0,1-8.6,1.224A30.668,30.668,0,0,1,34.082,19.582a23.392,23.392,0,0,1,2.429-1.211l4.72-1.446a23.356,23.356,0,0,1,23.211,9.038ZM20.481,10.229l.1-1.06a3.155,3.155,0,0,1,3.442-2.841l4.948.476a3.158,3.158,0,0,1,2.5,1.682l-3.784,2.007-5.722,2.72a3.172,3.172,0,0,1-1.481-2.984ZM6.147,25.431A1.548,1.548,0,0,1,5.1,25.408l-1.175-.454L22.553,16.1l.024-.012,4.99-2.372.163.406,1.43,3.562ZM23.958,48.594a41.959,41.959,0,0,0,36.967,9.037,23.357,23.357,0,0,1-36.967-9.037Zm42.655,7.118a1.45,1.45,0,0,0,.222-.3,26.15,26.15,0,0,0,4.728-11.235q.012-.059.02-.12a26.37,26.37,0,0,0,.329-4.152c0-.422-.011-.842-.031-1.259L84.367,59.934l-3.4,3.376h-23.4a26.417,26.417,0,0,0,9.047-7.6Zm18.408,7.6,1.77-1.757,5.229-.378v2.135Zm0,0" transform="translate(-6335 628.999)" fill="#fff"/>
  </g>
</svg>
