<svg xmlns="http://www.w3.org/2000/svg" width="119.5" height="119.5" viewBox="0 0 119.5 119.5">
  <g id="name-hider" transform="translate(-226 -1088)">
    <path id="Path_536" data-name="Path 536" d="M331.9,1112.263l-95.081,95.579v-95.579Z" transform="translate(0 -11)" fill="#040d88"/>
    <g id="Ebene_2" data-name="Ebene 2" transform="translate(226 1088)">
      <g id="Ebene_1" data-name="Ebene 1">
        <path id="Path_253" data-name="Path 253" d="M119.5,0q-14.32,15.56-29,30.7c-4.88,5.08-9.84,10.08-14.76,15.11l-14.88,15-15,14.88c-5,4.92-10,9.88-15.12,14.76Q15.57,105.18,0,119.5q14.33-15.56,29.05-30.7c4.88-5.08,9.84-10.08,14.76-15.12l14.88-15,15-14.88c5-4.92,10-9.88,15.11-14.76Q104,14.32,119.5,0Z" fill="#fff"/>
      </g>
    </g>
  </g>
</svg>
