<svg xmlns="http://www.w3.org/2000/svg" width="170.596" height="159.658" viewBox="0 0 170.596 159.658">
  <g id="wie-fit-sind-sie-arrow" transform="matrix(-0.485, -0.875, 0.875, -0.485, 57.186, 159.686)">
    <path id="Path_42" data-name="Path 42" d="M360.309,9525.752a60.84,60.84,0,0,1,3.85,28.462c-1.07,10.028-5.269,20.46-14.091,27.532a35.683,35.683,0,0,1-5.861,3.818c-2.366.905-4.893,1.966-7.508,3.025-1.313.53-2.648,1.061-3.991,1.546a38.761,38.761,0,0,1-6.887,1.578q-1.8.243-3.642.323a20.637,20.637,0,0,1-7.97-.619,13.865,13.865,0,0,1-3.407-1.148,19.026,19.026,0,0,1-2.721-1.855,15.859,15.859,0,0,1-2.272-2.273,11.2,11.2,0,0,1-1.557-12.482,20.313,20.313,0,0,1,2.127-3.107c4-4.829,9.986-7.884,16.756-9.551a17.945,17.945,0,0,1,3.365-.232c8.074.231,14.006,6.332,15.987,12.444a22.07,22.07,0,0,1,1.041,8.107,60.6,60.6,0,0,1-3.463,10.853,61.624,61.624,0,0,1-5.152,9.494q-1.268,2.2-2.675,4.242t-2.945,3.935q-1.536,1.894-3.2,3.642c-18.786,19.818-48.811,26.07-75.581,29.214" transform="translate(-249.852 -9525.752)" fill="none" stroke="#fff" stroke-miterlimit="10" stroke-width="4"/>
    <path id="Path_43" data-name="Path 43" d="M368.455,9623.413c-3.419,5.381-13.264,17.823-12.823,19.587,1,3,16.534,8.1,19.987,9.577" transform="translate(-355.473 -9525.752)" fill="none" stroke="#fff" stroke-miterlimit="10" stroke-width="4"/>
  </g>
</svg>
